<svg width="50" height="42" viewBox="0 0 50 42" fill="none" xmlns="http://www.w3.org/2000/svg">
<path d="M27.3097 2.24916C27.0488 2.66614 26.8727 3.13038 26.7914 3.61535C26.7101 4.10033 26.7252 4.59655 26.8359 5.07569C26.9466 5.55483 27.1507 6.00749 27.4366 6.40784C27.7224 6.80819 28.0844 7.14839 28.5019 7.409C33.0668 10.2449 36.6921 14.3637 38.9234 19.2489C36.667 19.0605 34.4063 19.5567 32.4369 20.6726C30.4676 21.7886 28.8813 23.4723 27.8856 25.5035C26.89 27.5347 26.5313 29.8188 26.8566 32.0569C27.1818 34.295 28.1759 36.383 29.7086 38.0476C31.2414 39.7122 33.2415 40.8759 35.4472 41.3865C37.6529 41.8971 39.9616 41.7308 42.0712 40.9093C44.1807 40.0878 45.9929 38.6494 47.2706 36.7823C48.5483 34.9153 49.2321 32.7064 49.2324 30.4448V30.3437C49.2295 30.0538 49.217 29.7641 49.1949 29.475C49.1612 28.9133 49.0937 28.127 48.9625 27.1609C48.7001 25.24 48.1865 22.5927 47.1481 19.6196C45.0788 13.666 40.8877 6.30813 32.4755 1.05842C32.0581 0.797807 31.5933 0.621874 31.1078 0.540669C30.6222 0.459465 30.1254 0.474579 29.6457 0.585149C29.1661 0.695718 28.7129 0.899578 28.3121 1.18509C27.9112 1.4706 27.5707 1.83217 27.3097 2.24916ZM1.06852 2.24916C0.80761 2.66614 0.63147 3.13038 0.550171 3.61535C0.468876 4.10033 0.484005 4.59655 0.594704 5.07569C0.705399 5.55483 0.909496 6.00749 1.19534 6.40784C1.48117 6.80819 1.84316 7.14839 2.26062 7.409C6.8257 10.2447 10.4511 14.3635 12.6821 19.2489C10.4258 19.0605 8.16508 19.5567 6.19572 20.6726C4.22635 21.7886 2.64007 23.4723 1.64442 25.5035C0.648762 27.5347 0.2901 29.8188 0.615356 32.0569C0.940617 34.295 1.93465 36.383 3.4674 38.0476C5.00014 39.7122 7.00023 40.8759 9.20596 41.3865C11.4117 41.8971 13.7204 41.7308 15.8299 40.9093C17.9395 40.0878 19.7517 38.6494 21.0294 36.7823C22.3071 34.9153 22.9909 32.7064 22.9912 30.4448V30.3437C22.9883 30.0538 22.9758 29.7641 22.9537 29.475C22.92 28.9133 22.8525 28.127 22.7213 27.1609C22.4589 25.24 21.9453 22.5927 20.9069 19.6196C18.8376 13.666 14.6465 6.30813 6.23429 1.05842C5.81683 0.797807 5.35206 0.621874 4.86653 0.540669C4.38099 0.459465 3.8842 0.474579 3.40451 0.585149C2.92483 0.695718 2.47165 0.899578 2.07084 1.18509C1.67002 1.4706 1.32944 1.83217 1.06852 2.24916Z" fill="#5D6160"/>
</svg>
