<svg width="49" height="42" viewBox="0 0 49 42" fill="none" xmlns="http://www.w3.org/2000/svg">
<path opacity="0.3" d="M21.9227 1.7599C22.1836 2.17688 22.3597 2.64112 22.441 3.12609C22.5223 3.61107 22.5072 4.1073 22.3965 4.58643C22.2858 5.06557 22.0817 5.51823 21.7959 5.91858C21.51 6.31893 21.148 6.65913 20.7306 6.91974C16.1656 9.75566 12.5403 13.8744 10.3091 18.7597C12.5654 18.5712 14.8261 19.0674 16.7955 20.1834C18.7648 21.2993 20.3511 22.983 21.3468 25.0142C22.3424 27.0454 22.7011 29.3295 22.3758 31.5676C22.0506 33.8058 21.0565 35.8937 19.5238 37.5583C17.9911 39.2229 15.991 40.3867 13.7852 40.8973C11.5795 41.4078 9.27081 41.2415 7.16126 40.42C5.05171 39.5986 3.23953 38.1602 1.9618 36.2931C0.684083 34.426 0.000328166 32.2172 0 29.9556V29.8545C0.00293004 29.5646 0.0154326 29.2748 0.0374874 28.9858C0.0712261 28.4241 0.138704 27.6378 0.26991 26.6717C0.532322 24.7508 1.0459 22.1035 2.0843 19.1304C4.15361 13.1767 8.34471 5.81888 16.7569 0.569165C17.1744 0.308549 17.6391 0.132616 18.1247 0.0514115C18.6102 -0.0297932 19.107 -0.0146791 19.5867 0.0958908C20.0664 0.206461 20.5196 0.41032 20.9204 0.695832C21.3212 0.981343 21.6618 1.34291 21.9227 1.7599ZM48.1639 1.7599C48.4248 2.17688 48.601 2.64112 48.6823 3.12609C48.7635 3.61107 48.7484 4.1073 48.6377 4.58643C48.527 5.06557 48.3229 5.51823 48.0371 5.91858C47.7512 6.31893 47.3893 6.65913 46.9718 6.91974C42.4067 9.75548 38.7814 13.8743 36.5503 18.7597C38.8066 18.5712 41.0673 19.0674 43.0367 20.1834C45.0061 21.2993 46.5924 22.983 47.588 25.0142C48.5837 27.0454 48.9423 29.3295 48.6171 31.5676C48.2918 33.8058 47.2978 35.8937 45.765 37.5583C44.2323 39.2229 42.2322 40.3867 40.0265 40.8973C37.8207 41.4078 35.512 41.2415 33.4025 40.42C31.2929 39.5986 29.4808 38.1602 28.203 36.2931C26.9253 34.426 26.2416 32.2172 26.2412 29.9556V29.8545C26.2442 29.5646 26.2567 29.2748 26.2787 28.9858C26.3125 28.4241 26.3799 27.6378 26.5111 26.6717C26.7735 24.7508 27.2871 22.1035 28.3255 19.1304C30.3948 13.1767 34.5859 5.81888 42.9981 0.569165C43.4156 0.308549 43.8804 0.132616 44.3659 0.0514115C44.8514 -0.0297932 45.3482 -0.0146791 45.8279 0.0958908C46.3076 0.206461 46.7608 0.41032 47.1616 0.695832C47.5624 0.981343 47.903 1.34291 48.1639 1.7599Z" fill="#5D6160"/>
</svg>
