<svg width="48" height="48" viewBox="0 0 48 48" fill="none" xmlns="http://www.w3.org/2000/svg">
<path d="M6.75 6C6.75 5.58579 6.41421 5.25 6 5.25C5.58579 5.25 5.25 5.58579 5.25 6H6.75ZM42 42.75C42.4142 42.75 42.75 42.4142 42.75 42C42.75 41.5858 42.4142 41.25 42 41.25V42.75ZM36.5996 16.7994H37.3496C37.3496 16.3852 37.0138 16.0494 36.5996 16.0494V16.7994ZM14.4565 28.8822C14.1708 29.1821 14.1824 29.6569 14.4824 29.9425C14.7823 30.2282 15.257 30.2166 15.5427 29.9167L14.4565 28.8822ZM31.1996 16.0494C30.7854 16.0494 30.4496 16.3852 30.4496 16.7994C30.4496 17.2136 30.7854 17.5494 31.1996 17.5494V16.0494ZM35.8496 22.1994C35.8496 22.6136 36.1854 22.9494 36.5996 22.9494C37.0138 22.9494 37.3496 22.6136 37.3496 22.1994H35.8496ZM23.3905 22.2674L23.9868 21.8126L23.3905 22.2674ZM27.8082 26.1412L28.3544 26.6552L27.8082 26.1412ZM26.2848 26.0623L25.6885 26.5172L26.2848 26.0623ZM5.25 6V34H6.75V6H5.25ZM14 42.75H42V41.25H14V42.75ZM5.25 34C5.25 38.8325 9.16751 42.75 14 42.75V41.25C9.99594 41.25 6.75 38.0041 6.75 34H5.25ZM36.0534 16.2854L27.262 25.6272L28.3544 26.6552L37.1458 17.3134L36.0534 16.2854ZM26.8812 25.6075L23.9868 21.8126L22.7941 22.7223L25.6885 26.5172L26.8812 25.6075ZM21.3281 21.667L14.4565 28.8822L15.5427 29.9167L22.4143 22.7015L21.3281 21.667ZM31.1996 17.5494H36.5996V16.0494H31.1996V17.5494ZM35.8496 16.7994V22.1994H37.3496V16.7994H35.8496ZM23.9868 21.8126C23.334 20.9567 22.0705 20.8875 21.3281 21.667L22.4143 22.7015C22.5204 22.5901 22.7009 22.6 22.7941 22.7223L23.9868 21.8126ZM27.262 25.6272C27.1562 25.7396 26.9748 25.7302 26.8812 25.6075L25.6885 26.5172C26.3439 27.3764 27.6137 27.4422 28.3544 26.6552L27.262 25.6272Z" fill="#003830"/>
</svg>
