<svg width="35" height="34" viewBox="0 0 35 34" fill="none" xmlns="http://www.w3.org/2000/svg">
<path d="M24.1432 29.7376H10.2598C7.85151 29.7376 5.86816 27.7685 5.86816 25.346V5.79597C5.86816 3.38764 7.83734 1.4043 10.2598 1.4043H24.1432C26.5515 1.4043 28.5348 3.37347 28.5348 5.79597V25.346C28.5348 27.7685 26.5657 29.7376 24.1432 29.7376Z" stroke="#292D32" stroke-width="1.5" stroke-linecap="round" stroke-linejoin="round"/>
<path d="M26.4098 16.9876H7.99316C6.81733 16.9876 5.86816 16.0385 5.86816 14.8626V12.0293C5.86816 10.8535 6.81733 9.9043 7.99316 9.9043H26.4098C27.5857 9.9043 28.5348 10.8535 28.5348 12.0293V14.8626C28.5348 16.0385 27.5857 16.9876 26.4098 16.9876Z" stroke="#292D32" stroke-width="1.5" stroke-linecap="round" stroke-linejoin="round"/>
<path opacity="0.4" d="M13.6572 5.6543H20.7406" stroke="#292D32" stroke-width="1.5" stroke-linecap="round" stroke-linejoin="round"/>
<path opacity="0.4" d="M12.2328 23.6458H12.2455" stroke="#292D32" stroke-width="2.5" stroke-linecap="round" stroke-linejoin="round"/>
<path opacity="0.4" d="M22.1507 23.6449H22.1635" stroke="#292D32" stroke-width="2.5" stroke-linecap="round" stroke-linejoin="round"/>
</svg>
