<svg width="302" height="300" viewBox="0 0 302 300" fill="none" xmlns="http://www.w3.org/2000/svg">
<path d="M88.3342 253.234C88.3342 253.234 96.7785 268.326 111.092 264.422C111.631 264.274 112.202 264.386 112.661 264.697C116.678 267.42 124.256 269.62 134.54 265.408C135.095 265.18 135.73 265.236 136.229 265.567C144.45 271.017 155.997 272.898 166.198 264.717C166.505 264.47 166.92 264.406 167.288 264.553C172.71 266.733 175.94 266.602 182.627 264.038C183.789 263.591 184.6 263.419 185.119 263.463C186.752 263.599 190.181 266.019 197.017 264.126C194.653 271.097 176.551 276.543 176.551 276.543L117.261 281.29L85.8867 268.77L88.3342 253.234Z" fill="#00816D"/>
<path d="M36.3525 184.354C17.9786 184.885 16.0861 196.815 16.0821 199.742C16.0741 203.015 17.2679 205.998 20.0667 206.768C23.4803 207.711 25.0734 204.397 23.2887 203.183C20.5857 201.351 21.0728 199.706 22.4143 198.919C24.3108 197.813 33.8731 198.592 30.1121 214.211C28.7705 219.788 26.4429 220.559 25.7122 223.01C25.9717 229.674 29.1858 229.175 36.1169 229.175C48.494 229.175 57.4094 218.595 57.4094 206.218C57.4014 193.844 48.7255 183.999 36.3525 184.354Z" fill="#00816D"/>
<path d="M270.736 256.718C277.791 242.205 272.413 225.711 260.124 215.255C252.162 208.483 255.488 201.141 259.337 200.486C261.585 200.103 264.284 203.297 261.485 205.784C260.715 206.467 261.689 208.3 264.563 206.95C266.644 205.972 269.658 199.987 264.635 195.292C259.924 190.884 253.791 190.105 247.315 192.445C235.953 196.553 232.435 207.485 234.379 221.008C235.813 230.99 238.388 271.722 238.388 271.722L259.465 271.363C264.488 267.206 268.121 262.1 270.736 256.718Z" fill="#00816D"/>
<path d="M258.377 230.935C260.238 234.145 264.909 233.007 263.619 229.973C261.559 225.11 265.943 223.84 267.52 224.91C271.996 227.941 273.996 238.793 261.523 243.751C255.235 246.251 241.452 246.446 226.344 243.52C220.024 251.521 225.35 289.223 262.621 288.62C301.84 287.989 306.843 245.325 297.469 227.554C291.639 216.506 275.94 209.527 264.282 213.244C258.129 215.2 253.658 222.79 258.377 230.935Z" fill="#003830"/>
<path d="M189.037 255.199C189.608 255.043 190.047 254.815 190.211 254.488C190.698 253.502 188.869 252.6 188.079 250.771C187.152 248.639 187.975 246.407 189.52 245.621C191.604 244.559 195.002 245.317 196.898 247.741C198.915 250.312 204.999 262.11 185.264 272.299C200.959 277.298 212.505 259.028 212.733 254.277C213.484 238.685 202.428 232.042 193.125 232.393C184.453 232.72 180.996 239.32 181.275 245.996C181.499 251.382 186.202 255.981 189.037 255.199Z" fill="#00816D"/>
<path d="M70.9973 276.098C72.0314 276.098 73.337 276.09 74.8262 276.062L79.753 284.878C96.3263 295.442 108.089 302.162 137.33 291.066C154.526 284.543 158.727 282.303 167.85 281.504C172.086 288.172 181.987 292.408 194.221 293.737L212.132 284.93C212.132 284.93 216.491 264.564 212.215 251.045C203.915 269.079 190.46 269.726 183.596 264.332C183.121 263.957 182.443 263.981 182.011 264.408C170.844 275.435 162.512 271.678 158.623 269.375C158.132 269.083 157.525 269.079 157.018 269.343C140.868 277.807 128 271.064 124.087 268.524C123.396 268.073 122.49 268.181 121.907 268.764C120.458 270.205 117.279 272.573 111.869 272.852C107.438 273.084 99.8997 269.902 95.5078 263.134C85.4066 247.567 78.4036 223.931 83.9373 210.356C85.9496 205.421 89.9581 203.621 93.1801 203.684C97.3245 203.768 99.1491 206.946 95.9151 207.669C94.0066 208.096 94.2342 211.518 98.0551 211.462C102.734 211.394 105.665 206.767 105.665 202.946C105.665 190.936 95.3881 184.001 79.7251 184.001C61.455 184.001 46.2871 200.91 46.2871 219.455C46.2831 237.997 52.7312 276.098 70.9973 276.098Z" fill="#003830"/>
<path d="M98.0006 296.602C108.21 299.944 119.828 300.239 137.827 293.755C150.387 289.232 157.183 283.235 167.855 281.502C169.947 284.792 173.417 287.487 177.864 289.539L201.097 285.778C201.097 285.778 213.391 266.318 205.781 273.154C198.909 279.322 189.695 275.605 185.363 274.164C184.688 273.94 183.949 274.06 183.37 274.475C175.433 280.169 167.855 281.506 160.577 278.368C159.678 277.981 158.684 277.897 157.945 278.544C148.846 286.497 139.428 283.127 132.752 278.927C131.942 278.416 130.9 278.54 130.189 279.178C116.921 291.14 101.29 282.301 97.234 277.833C96.7389 277.29 95.9963 277.054 95.2736 277.19C82.7688 279.486 77.1353 270.383 77.1353 270.383C72.6875 280.436 88.1389 290.777 98.0006 296.602Z" fill="#00816D"/>
<path d="M195.662 277.813C188.858 282.476 176.513 285.898 171.566 285.874C182.881 297.472 213.453 298.782 229.731 294.55C252.504 288.625 259.3 274.954 259.288 260.022C259.252 218.97 221.039 216.103 218.04 205.18C216.659 200.141 218.887 198.045 220.907 197.043C223.227 195.893 226.017 197.19 226.061 198.296C226.117 199.806 223.39 199.81 224.62 202.305C225.247 203.583 226.996 203.77 228.86 202.984C231.899 201.702 233.559 198.412 233.036 195.158C231.539 185.815 223.981 179.491 213.521 179.491C201.631 179.491 190.927 187.616 188.216 199.207C184.634 214.514 200.621 225.686 207.192 240.658C214.954 259.235 203.324 272.559 195.662 277.813Z" fill="#003830"/>
<path d="M54.0713 274.947C83.1534 289.037 91.0787 304.668 120.919 298.252C86.3514 295.837 77.3601 266.463 82.0554 253.859C83.7722 249.243 87.9285 245.821 92.528 244.991C94.4564 244.644 97.4828 244.676 98.98 246.752C99.6508 247.686 99.2395 248.8 98.0457 249.387C97.0316 249.886 96.0135 250.461 96.0894 252.082C96.2012 254.497 100.393 255.599 103.344 252.389C106.095 249.399 104.506 241.517 100.074 237.796C94.3965 233.033 85.7405 231.843 77.6316 232.778C57.5329 235.089 42.6565 249.746 39.9375 271.031C43.7983 271.546 49.4199 272.696 54.0713 274.947Z" fill="#00816D"/>
<path d="M23.5831 263.042C26.9169 260.929 26.5975 257.488 26.338 256.578C25.6553 254.178 22.3254 254.25 21.6347 256.645C21.4351 257.34 20.956 257.915 20.0097 258.159C16.7598 258.993 15.7456 250.912 20.0656 248.52C27.0127 244.676 36.3674 257.352 24.0103 271.378C36.7387 268.571 51.1919 272.628 62.8503 278.497C68.9789 271.765 73.3269 261.94 73.3269 251.87C73.3269 231.189 55.9351 214.619 37.8367 213.585C19.0515 212.511 -0.268668 224.896 0.00282848 243.49C0.28231 262.614 17.1191 267.138 23.5831 263.042Z" fill="#003830"/>
<path d="M158.28 118.784H120.846L121.588 121.715H158.807L158.28 118.784Z" fill="white"/>
<path d="M119.905 24.3159H68.0014C67.3386 24.3159 66.7118 24.0324 66.2367 23.5134C65.6777 22.9065 65.3982 22.0521 65.4701 21.1777C65.5899 19.7244 66.7437 18.5865 68.0972 18.5865H69.9857C70.7563 18.5865 71.5388 18.5187 72.0419 18.0116C72.525 17.5285 72.7566 16.6541 72.7526 15.3445C72.7366 11.3839 73.8266 8.27366 75.9906 6.10568C78.973 3.11123 83.2651 2.66406 85.5568 2.66406C88.172 2.66406 89.3937 4.41681 90.5715 6.11366C91.8891 8.01015 93.2545 9.96652 96.6762 9.96652H102.034C105.516 9.96652 107.7 11.6155 109.568 15.652L109.62 15.7678C110.714 18.1354 111.329 19.2693 113.293 19.2693H119.789C120.592 19.2693 121.267 19.5448 121.742 20.0598C122.157 20.515 122.389 21.1258 122.389 21.7846C122.385 23.0423 121.534 24.3159 119.905 24.3159ZM68.0932 19.385C67.155 19.385 66.3485 20.1995 66.2646 21.2416C66.2087 21.8964 66.4123 22.5272 66.8236 22.9744C67.147 23.3257 67.5662 23.5174 68.0014 23.5174H119.905C121.059 23.5174 121.586 22.6191 121.586 21.7886C121.586 20.9342 121.031 20.0718 119.789 20.0718H113.285C110.722 20.0718 109.916 18.323 108.89 16.1071L108.838 15.9913C107.101 12.2343 105.192 10.769 102.03 10.769H96.6722C92.8353 10.769 91.2822 8.54116 89.9127 6.57281C88.7509 4.9079 87.7488 3.46657 85.5528 3.46657C83.3849 3.46657 79.3324 3.8818 76.5535 6.67263C74.5453 8.68889 73.5351 11.6075 73.5511 15.3485C73.5551 16.8817 73.2477 17.9357 72.6088 18.5825C71.8982 19.2972 70.884 19.393 69.9857 19.393H68.0932V19.385Z" fill="black"/>
<path d="M264.867 150.222H191.663C190.262 150.222 189.092 149.715 188.285 148.753C187.583 147.919 187.195 146.777 187.195 145.543C187.195 143.076 188.816 140.452 191.823 140.452H197.057C197.556 140.452 197.915 140.317 198.159 140.041C198.989 139.087 198.626 136.476 198.171 133.17C198.043 132.252 197.911 131.297 197.792 130.287L197.772 130.104C197.309 126.223 196.342 118.15 204.555 115.207C207.705 114.077 209.266 113.646 212.097 112.86C212.832 112.656 213.654 112.428 214.62 112.157C217.16 111.442 219.028 111.422 220.677 112.097C222.689 112.919 224.315 114.808 225.656 117.87C227.413 121.887 228.854 123.125 231.178 122.598C247.016 119 249.544 125.484 251.991 131.757C252.143 132.14 252.291 132.523 252.442 132.906C254.015 136.823 255.92 140.448 259.198 140.448H264.716C267.846 140.448 269.487 142.948 269.487 145.419C269.479 147.735 268.037 150.222 264.867 150.222ZM191.827 141.251C189.311 141.251 187.998 143.411 187.998 145.543C187.998 146.589 188.317 147.547 188.9 148.242C189.551 149.017 190.509 149.424 191.667 149.424H264.871C267.49 149.424 268.684 147.352 268.684 145.423C268.684 143.415 267.442 141.251 264.712 141.251H259.194C255.441 141.251 253.373 137.386 251.696 133.206C251.544 132.823 251.392 132.435 251.241 132.052C248.809 125.82 246.513 119.934 231.349 123.38C228.195 124.099 226.55 121.927 224.921 118.194C222.302 112.205 218.996 111.758 214.832 112.927C213.866 113.199 213.043 113.427 212.309 113.63C209.402 114.437 207.945 114.84 204.823 115.958C197.209 118.689 198.123 126.335 198.562 130.008L198.586 130.191C198.706 131.194 198.838 132.144 198.966 133.058C199.469 136.703 199.836 139.334 198.766 140.56C198.371 141.015 197.796 141.247 197.061 141.247H191.827V141.251Z" fill="black"/>
<path d="M103.187 157.657H37.313C36.4027 157.657 35.5203 157.273 34.8975 156.611C34.2666 155.936 33.9512 155.054 34.0111 154.127C34.1229 152.394 35.6161 151.037 37.4128 151.037H40.6548C41.9723 151.037 43.0424 149.967 43.0424 148.649V143.367C43.0424 140.041 45.3102 137.203 48.5562 136.468L57.7032 134.404C61.0729 133.641 64.5305 134.979 66.5148 137.806C67.7485 139.566 69.7688 140.616 71.9208 140.616H81.2076C84.8927 140.616 88.2146 142.944 89.4763 146.402C90.4864 149.172 93.1454 151.037 96.096 151.037H103.091C104.888 151.037 106.381 152.394 106.493 154.127C106.553 155.054 106.237 155.936 105.606 156.611C104.979 157.273 104.097 157.657 103.187 157.657ZM37.4128 151.836C36.0354 151.836 34.8935 152.866 34.8096 154.179C34.7657 154.882 35.0013 155.553 35.4804 156.064C35.9595 156.575 36.6103 156.858 37.313 156.858H103.187C103.89 156.858 104.54 156.575 105.019 156.064C105.499 155.553 105.738 154.882 105.69 154.179C105.606 152.866 104.46 151.836 103.087 151.836H96.092C92.8061 151.836 89.8436 149.763 88.7217 146.677C87.5758 143.531 84.5534 141.415 81.2036 141.415H71.9168C69.5053 141.415 67.2415 140.237 65.856 138.265C64.0594 135.701 60.9252 134.492 57.8749 135.182L48.7278 137.247C45.8492 137.897 43.8369 140.413 43.8369 143.367V148.649C43.8369 150.406 42.4075 151.836 40.6508 151.836H37.4128V151.836Z" fill="black"/>
<path d="M70.5877 266.994L69.8491 266.686C71.8613 261.883 72.9234 256.761 72.9234 251.87C72.9234 242.208 69.0705 232.893 62.0795 225.638C55.4238 218.735 46.5802 214.487 37.8125 213.984L37.8604 213.186C46.8238 213.701 55.863 218.037 62.6544 225.083C69.7932 232.49 73.7219 242 73.7219 251.87C73.7259 256.861 72.6399 262.091 70.5877 266.994Z" fill="white"/>
<path d="M81.9632 270.492C80.1346 264.431 80.0267 258.162 81.6797 253.723C83.4204 249.051 87.6486 245.47 92.4557 244.6L92.5994 245.386C88.0639 246.205 84.0752 249.586 82.4303 254.002C80.8372 258.286 80.949 264.363 82.7297 270.264L81.9632 270.492Z" fill="white"/>
<path d="M96.3354 235.808C91.4564 233.285 84.8287 232.351 77.666 233.173C76.2287 233.337 74.7953 233.572 73.4059 233.864L73.2422 233.081C74.6556 232.782 76.1129 232.546 77.5782 232.379C84.8926 231.536 91.684 232.502 96.7027 235.098L96.3354 235.808Z" fill="white"/>
<path d="M122.389 284.366L122.125 283.611C124.9 282.637 127.523 281.044 129.927 278.876C130.777 278.109 132.027 277.99 132.969 278.584C135.093 279.922 137.181 280.968 139.169 281.683L138.898 282.433C136.854 281.695 134.718 280.629 132.542 279.259C131.899 278.856 131.044 278.944 130.462 279.471C127.978 281.711 125.263 283.36 122.389 284.366Z" fill="white"/>
<path d="M151.433 282.861L151.178 282.106C153.438 281.34 155.625 280.042 157.686 278.241C158.456 277.571 159.538 277.483 160.736 278.002C162.445 278.736 164.194 279.232 165.938 279.463L165.835 280.254C164.018 280.01 162.193 279.499 160.421 278.736C159.786 278.461 158.883 278.257 158.213 278.844C156.073 280.709 153.789 282.062 151.433 282.861Z" fill="white"/>
<path d="M176.188 278.896L175.9 278.149C178.26 277.243 180.692 275.898 183.135 274.145C183.818 273.654 184.7 273.518 185.483 273.781C185.754 273.873 186.042 273.969 186.349 274.077C188.078 274.668 190.445 275.478 193.005 275.902L192.873 276.688C190.25 276.253 187.842 275.43 186.09 274.832C185.786 274.728 185.499 274.628 185.227 274.54C184.684 274.356 184.073 274.452 183.594 274.796C181.103 276.588 178.611 277.97 176.188 278.896Z" fill="white"/>
<path d="M105.094 283.454C101.169 281.801 98.3101 279.602 96.9407 278.096C96.5454 277.661 95.9505 277.466 95.3476 277.577C92.9002 278.024 90.5286 278.072 88.3047 277.717L88.4325 276.931C90.5645 277.27 92.8443 277.226 95.2039 276.795C96.0783 276.631 96.9526 276.923 97.5356 277.565C98.8491 279.011 101.604 281.123 105.405 282.724L105.094 283.454Z" fill="white"/>
<path d="M109.42 296.67C100.68 294.143 93.3456 289.28 88.2031 282.604L88.8339 282.117C93.8686 288.657 101.063 293.42 109.639 295.904L109.42 296.67Z" fill="white"/>
<path d="M183.034 283.983L182.795 283.221C187.889 281.616 192.377 279.579 195.435 277.483C197.743 275.902 203.469 271.435 206.85 264.068C210.216 256.734 210.208 248.908 206.822 240.811L207.561 240.504C211.035 248.816 211.039 256.858 207.577 264.404C204.115 271.954 198.25 276.529 195.891 278.146C192.764 280.282 188.201 282.354 183.034 283.983Z" fill="white"/>
<path d="M253.37 280.905L252.731 280.421C256.82 274.999 258.892 268.136 258.884 260.019C258.864 238.212 247.864 227.683 239.592 221.662L240.063 221.016C246.024 225.356 250.456 230.091 253.61 235.501C257.63 242.388 259.675 250.641 259.683 260.019C259.69 268.312 257.566 275.339 253.37 280.905Z" fill="white"/>
<path d="M258.032 231.137C255.277 226.385 255.317 221.351 258.14 217.326L258.795 217.785C256.16 221.546 256.132 226.266 258.723 230.737L258.032 231.137Z" fill="white"/>
<path d="M261.678 244.121L261.383 243.378C268.693 240.471 270.246 235.82 270.518 233.305C270.869 230.075 269.548 226.757 267.304 225.24C266.901 224.968 266.246 224.884 265.599 225.02C265.168 225.112 264.373 225.379 263.878 226.166L263.203 225.743C263.687 224.976 264.477 224.445 265.435 224.242C266.306 224.058 267.172 224.186 267.755 224.581C270.234 226.258 271.7 229.883 271.316 233.397C271.021 236.084 269.38 241.058 261.678 244.121Z" fill="white"/>
<path d="M47.7043 211.189L46.9297 210.998C48.2153 205.799 50.6867 200.808 54.0844 196.568L54.7073 197.067C51.3814 201.216 48.9579 206.099 47.7043 211.189Z" fill="white"/>
<path d="M111.415 273.257C108.96 273.257 105.874 272.327 103.047 270.722L103.442 270.027C106.329 271.668 109.471 272.575 111.851 272.447C114.298 272.319 116.534 271.744 118.486 270.734L118.854 271.445C116.797 272.507 114.458 273.114 111.894 273.245C111.735 273.253 111.575 273.257 111.415 273.257Z" fill="white"/>
<path d="M134.609 273.211C131.826 272.632 129.127 271.69 126.592 270.412L126.951 269.697C129.427 270.943 132.058 271.861 134.769 272.428L134.609 273.211Z" fill="white"/>
<path d="M167.05 272.288C164.711 272.288 162.399 271.737 160.115 270.627L160.463 269.909C165.849 272.524 171.45 271.877 177.112 267.988L177.563 268.647C174.033 271.075 170.516 272.288 167.05 272.288Z" fill="white"/>
<path d="M192.405 267.696C191.522 267.696 190.64 267.62 189.762 267.468L189.897 266.682C194.828 267.544 199.931 265.823 204.263 261.839L204.802 262.426C201.053 265.875 196.733 267.696 192.405 267.696Z" fill="white"/>
<path d="M177.701 53.5885L174.475 50.666L160.058 54.8542L156.281 52.5824L138.985 57.7448L135.028 55.473L126.859 59.246L130.309 59.29L134.589 58.0722L137.739 61.6456L154.955 56.4832L154.975 56.5031L158.293 60.0565L172.499 55.8883L174.763 59.0983L190.809 54.5987C191.168 54.5987 191.336 54.1515 191.064 53.9159L189.292 52.3708C189.12 52.2191 189.112 51.9516 189.284 51.7959L191.124 50.075C191.384 49.8355 191.212 49.4043 190.861 49.4043L177.701 53.5885Z" fill="black"/>
<path d="M173.781 61.6456L171.705 57.4494L157.583 62.1047L154.753 57.5572L136.774 63.015L133.987 59.6692L126.701 59.6573L126.633 61.4539L133.544 62.7515L136.846 67.89L154.002 62.7675L157.256 68.0457L170.483 63.8774L172.883 68.0457L188.794 63.4662C189.153 63.4662 189.321 63.019 189.049 62.7835L187.224 60.887C187.053 60.7353 187.045 60.4678 187.216 60.3121L189.113 57.4813C189.372 57.2418 189.201 56.8105 188.849 56.8105L173.781 61.6456Z" fill="black"/>
<path d="M133.923 155.97H150.879V220.813H116.722C113.185 220.813 110.318 217.947 110.318 214.409V209.183C110.318 205.486 111.141 201.833 112.726 198.491L133.923 155.97Z" fill="black"/>
<path d="M186.958 218.24C186.958 218.24 181.025 214.319 178.498 212.658C175.264 210.526 174.282 207.743 173.779 204.96L150.198 73.8556H95.3521L95.9909 67.707H64.8686L60.8122 92.8963C59.8859 98.6417 64.3216 103.848 70.1429 103.848H108.12C113.375 103.848 117.958 107.413 119.252 112.504L146.593 220.943H186.248C187.761 220.947 188.004 218.811 186.958 218.24Z" fill="#FDB024"/>
<path d="M132.541 76.1363H118.814V56.5127H122.939L132.541 76.1363Z" fill="#EC8C92"/>
<path d="M116.068 55.2695V67.2154C116.068 68.1656 116.839 68.9402 117.793 68.9402C122.504 68.9402 126.122 65.1312 126.166 59.1384L126.273 59.0665L116.068 55.2695Z" fill="#F2BDBA"/>
<path d="M90.963 71.9618L87.6973 92.2783L88.4856 92.405L91.7513 72.0886L90.963 71.9618Z" fill="black"/>
<path d="M128.805 54.4832L117.681 46.0828C117.018 45.5877 116.072 46.0589 116.072 46.8893V55.2738L126.277 59.0667L128.673 57.5016C129.304 57.0904 129.671 56.3438 129.519 55.6051C129.427 55.1739 129.188 54.7707 128.805 54.4832Z" fill="#62BB46"/>
<path d="M126.166 59.1396L116.068 56.4765V53.6338L126.86 58.6844L126.166 59.1396Z" fill="black"/>
<path d="M138.031 73.8556H95.3544L95.9893 67.707H90.9226L89.9844 73.8556L135.708 102.51L138.031 73.8556Z" fill="#62BB46"/>
<path d="M136.759 89.5633L138.032 73.8564H111.697L136.759 89.5633Z" fill="white"/>
<path d="M98.9814 73.6757L91.4913 77.6085C88.3212 79.2734 84.4045 77.9598 82.8793 74.7178L79.25 67.0121L96.3503 61.151C98.3865 60.4523 100.515 61.9255 100.586 64.0735L100.794 70.5615C100.834 71.8631 100.131 73.0729 98.9814 73.6757Z" fill="#EC8C92"/>
<path d="M94.6543 54.1162V64.4171L118.211 60.165C118.634 60.0732 118.933 59.6979 118.933 59.2627C118.933 58.8315 118.634 58.4562 118.211 58.3603L94.6543 54.1162Z" fill="#FDB024"/>
<path d="M90.9622 73.6958C89.8403 73.7676 87.0455 73.9553 86.8179 71.935C85.121 74.1988 79.5234 74.6141 78.9644 71.963C77.7467 74.127 72.6122 75.0772 70.6758 71.935C68.1844 73.8076 65.8048 73.8036 64.108 73.6958C61.7524 73.544 59.8359 71.7833 59.8359 69.4237V57.0187C59.8359 49.1333 66.2281 46.0391 74.1134 46.0391H86.3667C92.5792 46.0391 97.6178 47.7798 97.6178 53.9923V67.0401C97.6138 70.7173 94.6314 73.4642 90.9622 73.6958Z" fill="#F2BDBA"/>
<path d="M58.4116 69.8788C55.7965 70.2741 50.3066 70.9409 50.3066 70.9409V47.4844C50.3066 47.4844 55.8005 48.0873 58.4116 48.5464C62.1926 49.2172 65.3667 51.6606 65.3667 55.5015V62.9198C65.3667 66.7646 62.2086 69.3039 58.4116 69.8788Z" fill="#FDB024"/>
<path d="M19.2952 35.0361L19.0996 82.9313L42.8436 77.6251C48.9323 76.2716 53.2682 70.8737 53.2682 64.6332V53.3102C53.2682 47.0698 48.9363 41.6718 42.8436 40.3183L19.2952 35.0361Z" fill="#62BB46"/>
<path d="M18.8991 82.9429C23.2056 82.9429 26.6966 72.2123 26.6966 58.9754C26.6966 45.7384 23.2056 35.0078 18.8991 35.0078C14.5926 35.0078 11.1016 45.7384 11.1016 58.9754C11.1016 72.2123 14.5926 82.9429 18.8991 82.9429Z" fill="#FDB024"/>
<path d="M179.84 28.5319H143.188V5.51855H175.12C177.727 5.51855 179.84 7.63064 179.84 10.2378V28.5319Z" fill="#00816D"/>
<path d="M179.806 13.6508V11.3551C179.806 10.84 179.391 10.4248 178.876 10.4248C178.361 10.4248 177.945 10.84 177.945 11.3551V31.9409C177.945 36.0413 181.267 39.3631 185.368 39.3631H223.505C225.585 39.3631 226.479 36.728 224.834 35.4584L214.078 27.1658C213.348 26.6028 213.276 25.5208 213.931 24.87L220.187 18.6176C221.089 17.7153 220.45 16.1781 219.177 16.1781H182.333C180.94 16.1781 179.806 15.0482 179.806 13.6508Z" fill="#00816D"/>
<path d="M148.409 220.95L143.678 3.0625H141.785V220.95H148.409Z" fill="#FFF3A1"/>
<path d="M141.785 256.121V277.15C144.312 277.426 146.96 277.014 149.631 275.809L149.199 256.125H141.785V256.121Z" fill="#FFF3A1"/>
<path d="M142.67 4.53558C141.416 4.53558 140.402 3.52147 140.402 2.26779C140.402 1.01412 141.416 0 142.67 0C143.924 0 144.938 1.01412 144.938 2.26779C144.938 3.51747 143.924 4.53558 142.67 4.53558Z" fill="#FFF3A1"/>
<path d="M130.007 91.1382L128.454 90.6951C126.549 90.1521 125.447 88.1677 125.986 86.2633L127.591 80.6297C128.318 78.0824 130.969 76.6092 133.516 77.3358L133.908 77.4476C135.812 77.9906 136.918 79.9749 136.375 81.8794L134.439 88.6708C133.896 90.5753 131.911 91.6812 130.007 91.1382Z" fill="#EC8C92"/>
<path d="M136.678 103.327H183.064C186.434 103.327 189.169 100.593 189.169 97.2228V87.2054C189.169 77.8428 181.579 70.2568 172.22 70.2568H143.246C135.368 70.2568 129.93 75.1837 131.032 81.2924C129.264 82.9293 129.376 86.874 131.005 88.8104C129.687 91.0343 130.178 95.0868 132.302 96.0849C131.216 98.2489 132.582 103.327 136.678 103.327Z" fill="#F2BDBA"/>
<path d="M172.219 70.2568H151.877C156.349 70.2568 159.978 73.8821 159.978 78.3578V98.0333C159.978 100.96 157.606 103.331 154.68 103.331H183.067C186.441 103.331 189.172 100.597 189.172 97.2268V87.2094C189.168 77.8428 181.578 70.2568 172.219 70.2568Z" fill="#FDB024"/>
<path d="M18.7714 79.4684C22.0106 79.4684 24.6365 70.293 24.6365 58.9745C24.6365 47.6559 22.0106 38.4805 18.7714 38.4805C15.5322 38.4805 12.9062 47.6559 12.9062 58.9745C12.9062 70.293 15.5322 79.4684 18.7714 79.4684Z" fill="black"/>
<path d="M123.071 60.9443C122.895 60.7326 122.696 60.5729 122.468 60.4572C121.921 60.1737 121.259 60.1697 120.564 60.1657H120.504L120.512 59.3672H120.568C121.326 59.3752 122.113 59.3792 122.832 59.7505C123.155 59.9142 123.438 60.1457 123.682 60.4372L123.071 60.9443Z" fill="black"/>
<path d="M118.412 65.0273C118.293 65.0273 118.173 65.0273 118.057 65.0273H117.854L117.857 64.2288H118.061C119.059 64.2368 120.189 64.2447 120.728 63.6299L121.331 64.1569C120.628 64.9554 119.486 65.0273 118.412 65.0273Z" fill="black"/>
<path d="M128.61 73.4561H115.77V74.2546H128.61V73.4561Z" fill="black"/>
<path d="M127.456 76.8545H121.375V77.653H127.456V76.8545Z" fill="black"/>
<path d="M142.671 4.93561C141.202 4.93561 140.004 3.73783 140.004 2.26855H140.802C140.802 3.29864 141.641 4.13709 142.671 4.13709C143.701 4.13709 144.539 3.29864 144.539 2.26855H145.338C145.338 3.73783 144.144 4.93561 142.671 4.93561Z" fill="black"/>
<path d="M142.183 260.21H141.385V273.461H142.183V260.21Z" fill="black"/>
<path d="M179.56 222.483C179.461 222.475 179.365 222.471 179.265 222.471H112.241C112.141 222.471 112.042 222.475 111.946 222.483C109.65 222.65 108.249 224.874 109.079 226.823C110.632 230.464 115.811 242.545 119.124 249.536C119.548 250.431 121.3 253.737 121.835 254.387C124.139 257.202 126.922 257.578 128.563 257.578H142.908H148.606H162.951C164.592 257.578 167.375 257.202 169.679 254.387C170.21 253.737 171.962 250.431 172.39 249.536C175.704 242.545 180.882 230.464 182.435 226.823C183.258 224.874 181.856 222.654 179.56 222.483Z" fill="#003830"/>
<path d="M162.947 257.184H128.559V257.982H162.947V257.184Z" fill="black"/>
<path d="M169.914 251.414H164.252V250.616H169.914V251.414ZM163.314 251.414H155.999V250.616H162.711L169.355 227.331L170.121 227.55L163.314 251.414ZM151.392 251.414H144.517V250.616H150.701L154.047 226.912L154.838 227.023L151.392 251.414ZM140.344 251.414H133.034V250.616H139.406L135.613 227.019L136.4 226.892L140.344 251.414ZM128.426 251.414H121.587V250.616H127.344L120.537 228.353L121.3 228.117L128.426 251.414Z" fill="white"/>
<path d="M18.6522 57.3825C18.6522 62.6128 19.2551 66.853 17.7579 66.853C16.2606 66.853 15.0469 62.6128 15.0469 57.3825C15.0469 52.1522 16.2606 47.9121 17.7579 47.9121C19.2551 47.9081 18.6522 52.1522 18.6522 57.3825Z" fill="#00816D"/>
<path d="M178.343 12.2539H177.545V33.0074H178.343V12.2539Z" fill="black"/>
<path d="M132.351 80.2473L131.912 79.5806C134.619 77.7919 137.514 76.0551 137.542 76.0352L137.953 76.7179C137.921 76.7418 135.046 78.4706 132.351 80.2473Z" fill="black"/>
<path d="M132.749 87.7135L132.33 87.0348C135.125 85.3179 138.219 83.5013 138.251 83.4854L138.654 84.1721C138.626 84.188 135.536 86.0007 132.749 87.7135Z" fill="black"/>
<path d="M133.823 95.3392L133.432 94.6445C135.596 93.4188 138.243 91.9934 138.267 91.9814L138.646 92.6841C138.618 92.7001 135.979 94.1215 133.823 95.3392Z" fill="black"/>
<path d="M87.3607 71.2168L86.6699 70.8215C87.145 69.9911 87.3966 69.0448 87.3966 68.0866V61.8701H88.1951V68.0866C88.1911 69.1806 87.9037 70.2665 87.3607 71.2168Z" fill="black"/>
<path d="M79.643 70.8006L78.9004 70.5092C79.1479 69.8704 79.2757 69.1956 79.2757 68.5049V61.8213H80.0742V68.5049C80.0742 69.2994 79.9265 70.07 79.643 70.8006Z" fill="black"/>
<path d="M71.2223 70.9289L70.5156 70.5536C70.9348 69.7631 71.1544 68.8727 71.1544 67.9744V62.0693H71.9529V67.9744C71.9569 69.0045 71.7054 70.0266 71.2223 70.9289Z" fill="black"/>
<path d="M142.109 16.0137H141.311V66.4402H142.109V16.0137Z" fill="black"/>
<path d="M142.109 104.439H141.311V154.866H142.109V104.439Z" fill="black"/>
</svg>
