<svg width="35" height="34" viewBox="0 0 35 34" fill="none" xmlns="http://www.w3.org/2000/svg">
<path d="M29.9502 8.48665V22.6533C29.9502 26.9033 27.8252 29.7367 22.8669 29.7367H11.5335C6.5752 29.7367 4.4502 26.9033 4.4502 22.6533V8.48665C4.4502 4.23665 6.5752 1.40332 11.5335 1.40332H22.8669C27.8252 1.40332 29.9502 4.23665 29.9502 8.48665Z" stroke="#292D32" stroke-width="1.5" stroke-miterlimit="10" stroke-linecap="round" stroke-linejoin="round"/>
<path opacity="0.4" d="M23.221 14.1533H11.1794C9.81936 14.1533 8.7002 13.0342 8.7002 11.6742V8.13249C8.7002 6.77249 9.81936 5.65332 11.1794 5.65332H23.221C24.581 5.65332 25.7002 6.77249 25.7002 8.13249V11.6742C25.7002 13.0342 24.581 14.1533 23.221 14.1533Z" stroke="#292D32" stroke-width="1.5" stroke-miterlimit="10" stroke-linecap="round" stroke-linejoin="round"/>
<path d="M14.7905 20.2168L11.5322 23.4751" stroke="#292D32" stroke-width="1.5" stroke-miterlimit="10" stroke-linecap="round" stroke-linejoin="round"/>
<path d="M11.5752 20.2598L14.8335 23.5181" stroke="#292D32" stroke-width="1.5" stroke-miterlimit="10" stroke-linecap="round" stroke-linejoin="round"/>
<path opacity="0.4" d="M23.5596 20.2871H23.5879" stroke="#292D32" stroke-width="2" stroke-miterlimit="10" stroke-linecap="round" stroke-linejoin="round"/>
<path opacity="0.4" d="M20.7275 23.3623V23.334" stroke="#292D32" stroke-width="2" stroke-miterlimit="10" stroke-linecap="round" stroke-linejoin="round"/>
</svg>
