<svg width="35" height="34" viewBox="0 0 35 34" fill="none" xmlns="http://www.w3.org/2000/svg">
<path d="M24.5666 29.7367C28.3221 29.7367 31.3666 26.6922 31.3666 22.9367C31.3666 19.1812 28.3221 16.1367 24.5666 16.1367C20.811 16.1367 17.7666 19.1812 17.7666 22.9367C17.7666 26.6922 20.811 29.7367 24.5666 29.7367Z" stroke="#292D32" stroke-width="1.5" stroke-miterlimit="10" stroke-linecap="round" stroke-linejoin="round"/>
<path d="M27.1039 23.0225H22.0322" stroke="#292D32" stroke-width="1.5" stroke-miterlimit="10" stroke-linecap="round" stroke-linejoin="round"/>
<path d="M24.5674 20.543V25.6288" stroke="#292D32" stroke-width="1.5" stroke-miterlimit="10" stroke-linecap="round" stroke-linejoin="round"/>
<path opacity="0.4" d="M31.3656 10.8811C31.3656 13.672 30.6431 16.1369 29.5097 18.2761C28.2631 16.9586 26.5064 16.137 24.5656 16.137C20.8114 16.137 17.7656 19.1828 17.7656 22.937C17.7656 24.6795 18.4314 26.2661 19.5081 27.4703C18.9839 27.7111 18.5022 27.9094 18.0772 28.0511C17.5956 28.2211 16.8022 28.2211 16.3206 28.0511C12.2122 26.6486 3.03223 20.7978 3.03223 10.8811C3.03223 6.50362 6.55972 2.96191 10.9089 2.96191C13.4731 2.96191 15.7681 4.20864 17.1989 6.12114C18.6297 4.20864 20.9247 2.96191 23.4889 2.96191C27.8381 2.96191 31.3656 6.50362 31.3656 10.8811Z" stroke="#292D32" stroke-width="1.5" stroke-linecap="round" stroke-linejoin="round"/>
</svg>
