<svg width="24" height="23" viewBox="0 0 24 23" fill="none" xmlns="http://www.w3.org/2000/svg">
<path d="M0.949219 3.39907C0.949219 2.68782 1.19816 2.10105 1.69602 1.63877C2.19388 1.17646 2.84112 0.945312 3.6377 0.945312C4.42006 0.945312 5.05305 1.17289 5.5367 1.6281C6.03456 2.09751 6.2835 2.70916 6.2835 3.46308C6.2835 4.14587 6.04169 4.71484 5.55804 5.17004C5.06018 5.63946 4.40583 5.87417 3.59502 5.87417H3.57369C2.79132 5.87417 2.15833 5.63946 1.67468 5.17004C1.19103 4.70063 0.949219 4.1103 0.949219 3.39907ZM1.2266 22.069V7.81584H5.96344V22.069H1.2266ZM8.58791 22.069H13.3248V14.1103C13.3248 13.6124 13.3817 13.2283 13.4954 12.9581C13.6946 12.4744 13.9969 12.0654 14.4023 11.7312C14.8077 11.3969 15.3162 11.2298 15.9279 11.2298C17.5211 11.2298 18.3176 12.3037 18.3176 14.4517V22.069H23.0545V13.8969C23.0545 11.7916 22.5566 10.1949 21.5609 9.10673C20.5651 8.01854 19.2494 7.47444 17.6135 7.47444C15.7785 7.47444 14.3489 8.26391 13.3248 9.84285V9.88553H13.3034L13.3248 9.84285V7.81584H8.58791C8.61635 8.27102 8.63058 9.68637 8.63058 12.0619C8.63058 14.4374 8.61635 17.7731 8.58791 22.069Z" fill="#171D1C"/>
</svg>
