<svg width="26" height="30" viewBox="0 0 26 30" fill="none" xmlns="http://www.w3.org/2000/svg">
<path d="M25.2096 9.97079C23.7221 3.42579 18.0129 0.479126 12.9979 0.479126C12.9979 0.479126 12.9979 0.479126 12.9838 0.479126C7.98294 0.479126 2.2596 3.41163 0.772104 9.95663C-0.885395 17.2666 3.59127 23.4575 7.64294 27.3533C9.1446 28.7983 11.0713 29.5208 12.9979 29.5208C14.9246 29.5208 16.8513 28.7983 18.3388 27.3533C22.3904 23.4575 26.8671 17.2808 25.2096 9.97079ZM12.9979 17.0683C10.5329 17.0683 8.53544 15.0708 8.53544 12.6058C8.53544 10.1408 10.5329 8.14329 12.9979 8.14329C15.4629 8.14329 17.4604 10.1408 17.4604 12.6058C17.4604 15.0708 15.4629 17.0683 12.9979 17.0683Z" fill="#171D1C"/>
</svg>
