<svg width="48" height="48" viewBox="0 0 48 48" fill="none" xmlns="http://www.w3.org/2000/svg">
<path d="M10 6.75H16V5.25H10V6.75ZM19.25 10V16H20.75V10H19.25ZM16 19.25H10V20.75H16V19.25ZM6.75 16V10H5.25V16H6.75ZM10 19.25C8.20507 19.25 6.75 17.7949 6.75 16H5.25C5.25 18.6234 7.37665 20.75 10 20.75V19.25ZM19.25 16C19.25 17.7949 17.7949 19.25 16 19.25V20.75C18.6234 20.75 20.75 18.6234 20.75 16H19.25ZM16 6.75C17.7949 6.75 19.25 8.20507 19.25 10H20.75C20.75 7.37665 18.6234 5.25 16 5.25V6.75ZM10 5.25C7.37665 5.25 5.25 7.37665 5.25 10H6.75C6.75 8.20507 8.20507 6.75 10 6.75V5.25ZM32 28.75H38V27.25H32V28.75ZM41.25 32V38H42.75V32H41.25ZM38 41.25H32V42.75H38V41.25ZM28.75 38V32H27.25V38H28.75ZM32 41.25C30.2051 41.25 28.75 39.7949 28.75 38H27.25C27.25 40.6234 29.3766 42.75 32 42.75V41.25ZM41.25 38C41.25 39.7949 39.7949 41.25 38 41.25V42.75C40.6234 42.75 42.75 40.6234 42.75 38H41.25ZM38 28.75C39.7949 28.75 41.25 30.2051 41.25 32H42.75C42.75 29.3766 40.6234 27.25 38 27.25V28.75ZM32 27.25C29.3766 27.25 27.25 29.3766 27.25 32H28.75C28.75 30.2051 30.2051 28.75 32 28.75V27.25ZM41.25 13C41.25 16.4518 38.4518 19.25 35 19.25V20.75C39.2802 20.75 42.75 17.2802 42.75 13H41.25ZM35 19.25C31.5482 19.25 28.75 16.4518 28.75 13H27.25C27.25 17.2802 30.7198 20.75 35 20.75V19.25ZM28.75 13C28.75 9.54822 31.5482 6.75 35 6.75V5.25C30.7198 5.25 27.25 8.71979 27.25 13H28.75ZM35 6.75C38.4518 6.75 41.25 9.54822 41.25 13H42.75C42.75 8.71979 39.2802 5.25 35 5.25V6.75ZM19.25 35C19.25 38.4518 16.4518 41.25 13 41.25V42.75C17.2802 42.75 20.75 39.2802 20.75 35H19.25ZM13 41.25C9.54822 41.25 6.75 38.4518 6.75 35H5.25C5.25 39.2802 8.71979 42.75 13 42.75V41.25ZM6.75 35C6.75 31.5482 9.54822 28.75 13 28.75V27.25C8.71979 27.25 5.25 30.7198 5.25 35H6.75ZM13 28.75C16.4518 28.75 19.25 31.5482 19.25 35H20.75C20.75 30.7198 17.2802 27.25 13 27.25V28.75Z" fill="#003830"/>
</svg>
