<svg width="30" height="26" viewBox="0 0 30 26" fill="none" xmlns="http://www.w3.org/2000/svg">
<path d="M22.084 0.958374H7.91732C3.66732 0.958374 0.833984 3.08337 0.833984 8.04171V17.9584C0.833984 22.9167 3.66732 25.0417 7.91732 25.0417H22.084C26.334 25.0417 29.1673 22.9167 29.1673 17.9584V8.04171C29.1673 3.08337 26.334 0.958374 22.084 0.958374ZM22.7498 9.58587L18.3157 13.1275C17.3807 13.8784 16.1907 14.2467 15.0007 14.2467C13.8107 14.2467 12.6065 13.8784 11.6857 13.1275L7.25148 9.58587C6.79815 9.21754 6.72732 8.53754 7.08148 8.08421C7.44982 7.63087 8.11565 7.54587 8.56898 7.91421L13.0032 11.4559C14.0798 12.32 15.9073 12.32 16.984 11.4559L21.4182 7.91421C21.8715 7.54587 22.5515 7.61671 22.9057 8.08421C23.274 8.53754 23.2031 9.21754 22.7498 9.58587Z" fill="#171D1C"/>
</svg>
