<svg width="21" height="27" viewBox="0 0 21 27" fill="none" xmlns="http://www.w3.org/2000/svg">
<path d="M20.2 7.57031V19.5703C20.2 24.3703 19 25.5703 14.2 25.5703H7C2.2 25.5703 1 24.3703 1 19.5703V7.57031C1 2.77031 2.2 1.57031 7 1.57031H14.2C19 1.57031 20.2 2.77031 20.2 7.57031Z" stroke="#292D32" stroke-width="1.5" stroke-linecap="round" stroke-linejoin="round"/>
<path opacity="0.4" d="M12.9992 5.77051H8.19922" stroke="#292D32" stroke-width="1.5" stroke-linecap="round" stroke-linejoin="round"/>
<path opacity="0.4" d="M10.5983 22.0901C11.6255 22.0901 12.4583 21.2574 12.4583 20.2301C12.4583 19.2029 11.6255 18.3701 10.5983 18.3701C9.57103 18.3701 8.73828 19.2029 8.73828 20.2301C8.73828 21.2574 9.57103 22.0901 10.5983 22.0901Z" stroke="#292D32" stroke-width="1.5" stroke-linecap="round" stroke-linejoin="round"/>
</svg>
