<svg width="32" height="32" viewBox="0 0 32 32" fill="none" xmlns="http://www.w3.org/2000/svg">
<path d="M30.1229 24.9674C30.1229 25.4774 30.0095 26.0016 29.7687 26.5116C29.5279 27.0216 29.2162 27.5033 28.8054 27.9566C28.1112 28.7216 27.3462 29.2741 26.482 29.6283C25.632 29.9824 24.7112 30.1666 23.7195 30.1666C22.2745 30.1666 20.7304 29.8266 19.1012 29.1324C17.472 28.4383 15.8429 27.5033 14.2279 26.3274C12.5987 25.1374 11.0545 23.8199 9.5812 22.3608C8.12203 20.8874 6.80453 19.3433 5.6287 17.7283C4.46703 16.1133 3.53203 14.4983 2.85203 12.8974C2.17203 11.2824 1.83203 9.73825 1.83203 8.26492C1.83203 7.30159 2.00203 6.38075 2.34203 5.53075C2.68203 4.66659 3.22036 3.87325 3.9712 3.16492C4.87786 2.27242 5.86953 1.83325 6.91786 1.83325C7.31453 1.83325 7.7112 1.91825 8.06536 2.08825C8.4337 2.25825 8.75953 2.51325 9.01453 2.88159L12.3012 7.51409C12.5562 7.86825 12.7404 8.19409 12.8679 8.50575C12.9954 8.80325 13.0662 9.10075 13.0662 9.36992C13.0662 9.70992 12.967 10.0499 12.7687 10.3758C12.5845 10.7016 12.3154 11.0416 11.9754 11.3816L10.8987 12.5008C10.7429 12.6566 10.672 12.8408 10.672 13.0674C10.672 13.1808 10.6862 13.2799 10.7145 13.3933C10.757 13.5066 10.7995 13.5916 10.8279 13.6766C11.0829 14.1441 11.522 14.7533 12.1454 15.4899C12.7829 16.2266 13.4629 16.9774 14.1995 17.7283C14.9645 18.4791 15.7012 19.1733 16.452 19.8108C17.1887 20.4341 17.7979 20.8591 18.2795 21.1141C18.3504 21.1424 18.4354 21.1849 18.5345 21.2274C18.6479 21.2699 18.7612 21.2841 18.8887 21.2841C19.1295 21.2841 19.3137 21.1991 19.4695 21.0433L20.5462 19.9808C20.9004 19.6266 21.2404 19.3574 21.5662 19.1874C21.892 18.9891 22.2179 18.8899 22.572 18.8899C22.8412 18.8899 23.1245 18.9466 23.4362 19.0741C23.7479 19.2016 24.0737 19.3858 24.4279 19.6266L29.117 22.9558C29.4854 23.2108 29.7404 23.5083 29.8962 23.8624C30.0379 24.2166 30.1229 24.5708 30.1229 24.9674Z" fill="#171D1C" stroke="#171D1C" stroke-width="2.125" stroke-miterlimit="10"/>
</svg>
