<svg width="48" height="48" viewBox="0 0 48 48" fill="none" xmlns="http://www.w3.org/2000/svg">
<path d="M41.4693 42.5303C41.7622 42.8232 42.237 42.8232 42.5299 42.5303C42.8228 42.2374 42.8228 41.7625 42.5299 41.4696L41.4693 42.5303ZM34.8799 33.8196C34.587 33.5268 34.1122 33.5268 33.8193 33.8196C33.5264 34.1125 33.5264 34.5874 33.8193 34.8803L34.8799 33.8196ZM15.25 27C15.25 27.4142 15.5858 27.75 16 27.75C16.4142 27.75 16.75 27.4142 16.75 27H15.25ZM16.75 21.4444C16.75 21.0302 16.4142 20.6944 16 20.6944C15.5858 20.6944 15.25 21.0302 15.25 21.4444H16.75ZM21.25 27C21.25 27.4142 21.5858 27.75 22 27.75C22.4142 27.75 22.75 27.4142 22.75 27H21.25ZM22.75 19.2222C22.75 18.808 22.4142 18.4722 22 18.4722C21.5858 18.4722 21.25 18.808 21.25 19.2222H22.75ZM27.25 27C27.25 27.4142 27.5858 27.75 28 27.75C28.4142 27.75 28.75 27.4142 28.75 27H27.25ZM28.75 17C28.75 16.5858 28.4142 16.25 28 16.25C27.5858 16.25 27.25 16.5858 27.25 17H28.75ZM22.651 5.25C13.075 5.25 5.25 12.8322 5.25 22.199H6.75C6.75 13.6993 13.8642 6.75 22.651 6.75V5.25ZM5.25 22.199C5.25 31.5657 13.0749 39.15 22.651 39.15V37.65C13.8643 37.65 6.75 30.6988 6.75 22.199H5.25ZM22.651 39.15C32.2252 39.15 40.05 31.5657 40.05 22.199H38.55C38.55 30.6989 31.4356 37.65 22.651 37.65V39.15ZM40.05 22.199C40.05 12.8323 32.225 5.25 22.651 5.25V6.75C31.4357 6.75 38.55 13.6993 38.55 22.199H40.05ZM42.5299 41.4696L34.8799 33.8196L33.8193 34.8803L41.4693 42.5303L42.5299 41.4696ZM16.75 27V21.4444H15.25V27H16.75ZM22.75 27V19.2222H21.25V27H22.75ZM28.75 27V17H27.25V27H28.75Z" fill="#003830"/>
</svg>
