<svg width="34" height="34" viewBox="0 0 34 34" fill="none" xmlns="http://www.w3.org/2000/svg">
<path opacity="0.34" d="M24.0273 7.31055C26.8607 9.27971 28.8157 12.4105 29.2123 16.023" stroke="#292D32" stroke-width="1.5" stroke-linecap="round" stroke-linejoin="round"/>
<path opacity="0.34" d="M4.94531 16.0943C5.31365 12.496 7.24031 9.36517 10.0453 7.38184" stroke="#292D32" stroke-width="1.5" stroke-linecap="round" stroke-linejoin="round"/>
<path opacity="0.34" d="M11.6016 28.2354C13.2449 29.0712 15.1149 29.5387 17.0841 29.5387C18.9824 29.5387 20.7674 29.1137 22.3682 28.3345" stroke="#292D32" stroke-width="1.5" stroke-linecap="round" stroke-linejoin="round"/>
<path d="M17.0868 9.47823C19.2619 9.47823 21.0251 7.71498 21.0251 5.5399C21.0251 3.36481 19.2619 1.60156 17.0868 1.60156C14.9117 1.60156 13.1484 3.36481 13.1484 5.5399C13.1484 7.71498 14.9117 9.47823 17.0868 9.47823Z" stroke="#292D32" stroke-width="1.5" stroke-linecap="round" stroke-linejoin="round"/>
<path d="M6.84068 26.7907C9.01576 26.7907 10.779 25.0275 10.779 22.8524C10.779 20.6773 9.01576 18.9141 6.84068 18.9141C4.6656 18.9141 2.90234 20.6773 2.90234 22.8524C2.90234 25.0275 4.6656 26.7907 6.84068 26.7907Z" stroke="#292D32" stroke-width="1.5" stroke-linecap="round" stroke-linejoin="round"/>
<path d="M27.1571 26.7907C29.3322 26.7907 31.0954 25.0275 31.0954 22.8524C31.0954 20.6773 29.3322 18.9141 27.1571 18.9141C24.982 18.9141 23.2188 20.6773 23.2188 22.8524C23.2188 25.0275 24.982 26.7907 27.1571 26.7907Z" stroke="#292D32" stroke-width="1.5" stroke-linecap="round" stroke-linejoin="round"/>
</svg>
