<svg width="48" height="48" viewBox="0 0 48 48" fill="none" xmlns="http://www.w3.org/2000/svg">
<path d="M20.7304 20.7058L20.8495 21.4463L20.8495 21.4463L20.7304 20.7058ZM21.3324 20.3056L20.6837 19.9291L20.6837 19.9291L21.3324 20.3056ZM16.2389 22.6574L15.7233 23.202L15.7233 23.202L16.2389 22.6574ZM16.7017 21.354L16.5826 20.6136L16.5826 20.6136L16.7017 21.354ZM19.3117 25.9962L20.0529 26.1104L20.0529 26.1104L19.3117 25.9962ZM19.0818 25.3486L19.5974 24.804L19.5974 24.804L19.0818 25.3486ZM19.9522 30.5079L19.6462 29.8232L19.6462 29.8232L19.9522 30.5079ZM18.7405 29.7024L17.9993 29.5882L17.9993 29.5882L18.7405 29.7024ZM24.3719 28.8656L24.066 29.5503L24.066 29.5503L24.3719 28.8656ZM23.6278 28.8656L23.9338 29.5503L23.9338 29.5503L23.6278 28.8656ZM29.2592 29.7024L30.0005 29.5882L30.0005 29.5882L29.2592 29.7024ZM28.0476 30.5079L28.3535 29.8232L28.3535 29.8232L28.0476 30.5079ZM28.918 25.3486L29.4336 25.8933L29.4336 25.8933L28.918 25.3486ZM28.6881 25.9962L27.9468 26.1104L27.9468 26.1104L28.6881 25.9962ZM31.298 21.354L31.4172 20.6136L31.4172 20.6136L31.298 21.354ZM31.7608 22.6574L32.2764 23.202L32.2764 23.202L31.7608 22.6574ZM26.6674 20.3056L27.3161 19.9291L27.3161 19.9291L26.6674 20.3056ZM27.2694 20.7058L27.1502 21.4463L27.1502 21.4463L27.2694 20.7058ZM24.7487 17L24.1001 17.3765L24.1001 17.3765L24.7487 17ZM23.251 17L23.8997 17.3765L23.8997 17.3765L23.251 17ZM41.25 24C41.25 33.5269 33.5269 41.25 24 41.25V42.75C34.3553 42.75 42.75 34.3553 42.75 24H41.25ZM24 41.25C14.4731 41.25 6.75 33.5269 6.75 24H5.25C5.25 34.3553 13.6447 42.75 24 42.75V41.25ZM6.75 24C6.75 14.4731 14.4731 6.75 24 6.75V5.25C13.6447 5.25 5.25 13.6447 5.25 24H6.75ZM24 6.75C33.5269 6.75 41.25 14.4731 41.25 24H42.75C42.75 13.6447 34.3553 5.25 24 5.25V6.75ZM24.1001 17.3765L26.0187 20.6821L27.3161 19.9291L25.3974 16.6235L24.1001 17.3765ZM27.1502 21.4463L31.1789 22.0945L31.4172 20.6136L27.3885 19.9653L27.1502 21.4463ZM31.2452 22.1127L28.4024 24.804L29.4336 25.8933L32.2764 23.202L31.2452 22.1127ZM27.9468 26.1104L28.518 29.8166L30.0005 29.5882L29.4293 25.8819L27.9468 26.1104ZM28.3535 29.8232L24.6779 28.1808L24.066 29.5503L27.7416 31.1927L28.3535 29.8232ZM23.3219 28.1808L19.6462 29.8232L20.2581 31.1927L23.9338 29.5503L23.3219 28.1808ZM19.4818 29.8166L20.0529 26.1104L18.5704 25.8819L17.9993 29.5882L19.4818 29.8166ZM19.5974 24.804L16.7545 22.1127L15.7233 23.202L18.5661 25.8933L19.5974 24.804ZM16.8209 22.0945L20.8495 21.4463L20.6112 19.9653L16.5826 20.6136L16.8209 22.0945ZM21.981 20.6821L23.8997 17.3765L22.6024 16.6235L20.6837 19.9291L21.981 20.6821ZM20.8495 21.4463C21.3118 21.3719 21.737 21.1024 21.981 20.6821L20.6837 19.9291C20.6826 19.931 20.6636 19.9569 20.6112 19.9653L20.8495 21.4463ZM16.7545 22.1127C16.7465 22.1052 16.7447 22.1014 16.7453 22.1025C16.746 22.1036 16.7476 22.1069 16.7487 22.1118C16.7511 22.1222 16.7492 22.1287 16.749 22.1294C16.7488 22.1298 16.7505 22.1249 16.7584 22.1183C16.765 22.1129 16.7827 22.1007 16.8209 22.0945L16.5826 20.6136C15.9817 20.7103 15.5197 21.1085 15.3354 21.6275C15.1488 22.1531 15.2636 22.7669 15.7233 23.202L16.7545 22.1127ZM20.0529 26.1104C20.1288 25.6179 19.9484 25.1363 19.5974 24.804L18.5661 25.8933C18.573 25.8998 18.573 25.9025 18.5717 25.899C18.5712 25.8975 18.5705 25.895 18.5702 25.8917C18.5699 25.8883 18.57 25.8849 18.5704 25.8819L20.0529 26.1104ZM19.6462 29.8232C19.5902 29.8482 19.5348 29.839 19.497 29.8138C19.4793 29.8021 19.476 29.7935 19.4778 29.7971C19.4788 29.7993 19.4804 29.8034 19.4813 29.8089C19.4822 29.8145 19.4816 29.8177 19.4818 29.8166L17.9993 29.5882C17.9005 30.2291 18.2245 30.7691 18.6665 31.063C19.1056 31.3549 19.7035 31.4405 20.2581 31.1927L19.6462 29.8232ZM24.6779 28.1808C24.2484 27.9889 23.7514 27.9889 23.3219 28.1808L23.9338 29.5503C23.9739 29.5324 24.0259 29.5324 24.066 29.5503L24.6779 28.1808ZM28.518 29.8166C28.5181 29.8177 28.5176 29.8145 28.5185 29.8089C28.5193 29.8034 28.5209 29.7993 28.522 29.7971C28.5238 29.7935 28.5205 29.8021 28.5028 29.8138C28.4649 29.839 28.4096 29.8482 28.3535 29.8232L27.7416 31.1927C28.2963 31.4405 28.8942 31.3549 29.3332 31.063C29.7753 30.7691 30.0992 30.2291 30.0005 29.5882L28.518 29.8166ZM28.4024 24.804C28.0513 25.1363 27.8709 25.6179 27.9468 26.1104L29.4293 25.8819C29.4298 25.8849 29.4299 25.8883 29.4296 25.8917C29.4292 25.895 29.4286 25.8975 29.428 25.899C29.4268 25.9025 29.4268 25.8998 29.4336 25.8933L28.4024 24.804ZM31.1789 22.0945C31.2171 22.1007 31.2348 22.1129 31.2413 22.1183C31.2493 22.1249 31.2509 22.1298 31.2508 22.1294C31.2506 22.1287 31.2487 22.1222 31.2511 22.1118C31.2522 22.1069 31.2538 22.1036 31.2544 22.1025C31.2551 22.1014 31.2532 22.1052 31.2452 22.1127L32.2764 23.202C32.7361 22.7669 32.851 22.1531 32.6643 21.6275C32.4801 21.1085 32.0181 20.7103 31.4172 20.6136L31.1789 22.0945ZM26.0187 20.6821C26.2627 21.1024 26.6879 21.3719 27.1502 21.4463L27.3885 19.9653C27.3362 19.9569 27.3172 19.931 27.3161 19.9291L26.0187 20.6821ZM25.3974 16.6235C25.0825 16.081 24.5167 15.8381 23.9999 15.8381C23.4831 15.8381 22.9173 16.081 22.6024 16.6235L23.8997 17.3765C23.9036 17.3697 23.9273 17.3381 23.9999 17.3381C24.0725 17.3381 24.0961 17.3697 24.1001 17.3765L25.3974 16.6235Z" fill="#003830"/>
</svg>
