<svg width="35" height="34" viewBox="0 0 35 34" fill="none" xmlns="http://www.w3.org/2000/svg">
<path d="M14.4393 2.15496L5.91098 7.72246C3.17681 9.50746 3.17681 13.5025 5.91098 15.2875L14.4393 20.855C15.9693 21.8608 18.491 21.8608 20.021 20.855L28.5068 15.2875C31.2268 13.5025 31.2268 9.52162 28.5068 7.73662L20.021 2.16912C18.491 1.14912 15.9693 1.14912 14.4393 2.15496Z" stroke="#292D32" stroke-width="1.5" stroke-linecap="round" stroke-linejoin="round"/>
<path opacity="0.4" d="M8.1753 17.0996L8.16113 23.7438C8.16113 25.5429 9.54947 27.4696 11.2495 28.0363L15.7686 29.5379C16.5478 29.7929 17.837 29.7929 18.6303 29.5379L23.1495 28.0363C24.8495 27.4696 26.2378 25.5429 26.2378 23.7438V17.1704" stroke="#292D32" stroke-width="1.5" stroke-linecap="round" stroke-linejoin="round"/>
<path opacity="0.4" d="M30.5166 19.8203V11.3203" stroke="#292D32" stroke-width="1.5" stroke-linecap="round" stroke-linejoin="round"/>
</svg>
