<svg width="32" height="32" viewBox="0 0 32 32" fill="none" xmlns="http://www.w3.org/2000/svg">
<path d="M30.1248 24.9682C30.1248 25.4782 30.0115 26.0023 29.7706 26.5123C29.5298 27.0223 29.2182 27.504 28.8073 27.9573C28.1132 28.7223 27.3481 29.2748 26.484 29.629C25.634 29.9832 24.7132 30.1673 23.7215 30.1673C22.2765 30.1673 20.7323 29.8273 19.1031 29.1332C17.474 28.439 15.8448 27.504 14.2298 26.3282C12.6007 25.1382 11.0565 23.8207 9.58315 22.3615C8.12398 20.8882 6.80648 19.344 5.63065 17.729C4.46898 16.114 3.53398 14.499 2.85398 12.8982C2.17398 11.2832 1.83398 9.73898 1.83398 8.26565C1.83398 7.30232 2.00398 6.38148 2.34398 5.53148C2.68398 4.66732 3.22232 3.87398 3.97315 3.16565C4.87982 2.27315 5.87148 1.83398 6.91982 1.83398C7.31648 1.83398 7.71315 1.91898 8.06732 2.08898C8.43565 2.25898 8.76148 2.51398 9.01648 2.88232L12.3032 7.51482C12.5582 7.86898 12.7423 8.19482 12.8698 8.50648C12.9973 8.80398 13.0682 9.10148 13.0682 9.37065C13.0682 9.71065 12.969 10.0507 12.7707 10.3765C12.5865 10.7023 12.3173 11.0423 11.9773 11.3823L10.9007 12.5015C10.7448 12.6573 10.674 12.8415 10.674 13.0682C10.674 13.1815 10.6882 13.2807 10.7165 13.394C10.759 13.5073 10.8015 13.5923 10.8298 13.6773C11.0848 14.1448 11.524 14.754 12.1473 15.4907C12.7848 16.2273 13.4648 16.9782 14.2015 17.729C14.9665 18.4798 15.7032 19.174 16.454 19.8115C17.1907 20.4348 17.7998 20.8598 18.2815 21.1148C18.3523 21.1432 18.4373 21.1856 18.5365 21.2281C18.6498 21.2706 18.7632 21.2848 18.8907 21.2848C19.1315 21.2848 19.3157 21.1998 19.4715 21.044L20.5482 19.9815C20.9023 19.6273 21.2423 19.3582 21.5682 19.1882C21.894 18.9898 22.2198 18.8907 22.574 18.8907C22.8431 18.8907 23.1265 18.9473 23.4382 19.0748C23.7498 19.2023 24.0757 19.3865 24.4298 19.6273L29.119 22.9565C29.4873 23.2115 29.7423 23.509 29.8981 23.8631C30.0398 24.2173 30.1248 24.5715 30.1248 24.9682Z" fill="#171D1C" stroke="#171D1C" stroke-width="2.125" stroke-miterlimit="10"/>
</svg>
