<svg width="80" height="80" viewBox="0 0 80 80" fill="none" xmlns="http://www.w3.org/2000/svg">
<rect width="80" height="80" rx="14" fill="#36F1CD" fill-opacity="0.08"/>
<path opacity="0.34" d="M47.0273 30.3105C49.8607 32.2797 51.8157 35.4105 52.2123 39.023" stroke="#292D32" stroke-width="1.5" stroke-linecap="round" stroke-linejoin="round"/>
<path opacity="0.34" d="M27.9453 39.0943C28.3136 35.496 30.2403 32.3652 33.0453 30.3818" stroke="#292D32" stroke-width="1.5" stroke-linecap="round" stroke-linejoin="round"/>
<path opacity="0.34" d="M34.6016 51.2354C36.2449 52.0712 38.1149 52.5387 40.0841 52.5387C41.9824 52.5387 43.7674 52.1137 45.3682 51.3345" stroke="#292D32" stroke-width="1.5" stroke-linecap="round" stroke-linejoin="round"/>
<path d="M40.0868 32.4782C42.2619 32.4782 44.0251 30.715 44.0251 28.5399C44.0251 26.3648 42.2619 24.6016 40.0868 24.6016C37.9117 24.6016 36.1484 26.3648 36.1484 28.5399C36.1484 30.715 37.9117 32.4782 40.0868 32.4782Z" stroke="#292D32" stroke-width="1.5" stroke-linecap="round" stroke-linejoin="round"/>
<path d="M29.8407 49.7907C32.0158 49.7907 33.779 48.0275 33.779 45.8524C33.779 43.6773 32.0158 41.9141 29.8407 41.9141C27.6656 41.9141 25.9023 43.6773 25.9023 45.8524C25.9023 48.0275 27.6656 49.7907 29.8407 49.7907Z" stroke="#292D32" stroke-width="1.5" stroke-linecap="round" stroke-linejoin="round"/>
<path d="M50.1571 49.7907C52.3322 49.7907 54.0954 48.0275 54.0954 45.8524C54.0954 43.6773 52.3322 41.9141 50.1571 41.9141C47.982 41.9141 46.2188 43.6773 46.2188 45.8524C46.2188 48.0275 47.982 49.7907 50.1571 49.7907Z" stroke="#292D32" stroke-width="1.5" stroke-linecap="round" stroke-linejoin="round"/>
</svg>
