<svg width="80" height="80" viewBox="0 0 80 80" fill="none" xmlns="http://www.w3.org/2000/svg">
<g clip-path="url(#clip0_792_50621)">
<rect width="80" height="80" rx="14" fill="#36F1CD" fill-opacity="0.08"/>
<g opacity="0.4">
<path d="M38.2288 46.8828V49.7587C38.2288 52.1954 35.9621 54.1645 33.1713 54.1645C30.3805 54.1645 28.0996 52.1954 28.0996 49.7587V46.8828C28.0996 49.3195 30.3663 51.0478 33.1713 51.0478C35.9621 51.0478 38.2288 49.3053 38.2288 46.8828Z" stroke="#292D32" stroke-width="1.5" stroke-linecap="round" stroke-linejoin="round"/>
<path d="M38.2292 42.9893C38.2292 43.6976 38.0309 44.3493 37.6909 44.9159C36.8551 46.2901 35.1409 47.1543 33.1575 47.1543C31.1742 47.1543 29.46 46.2759 28.6242 44.9159C28.2842 44.3493 28.0859 43.6976 28.0859 42.9893C28.0859 41.771 28.6526 40.6801 29.5592 39.8868C30.4801 39.0793 31.7409 38.5977 33.1434 38.5977C34.5459 38.5977 35.8067 39.0935 36.7276 39.8868C37.6626 40.666 38.2292 41.771 38.2292 42.9893Z" stroke="#292D32" stroke-width="1.5" stroke-linecap="round" stroke-linejoin="round"/>
<path d="M38.2288 42.9878V46.8837C38.2288 49.3203 35.9621 51.0487 33.1713 51.0487C30.3805 51.0487 28.0996 49.3062 28.0996 46.8837V42.9878C28.0996 40.5512 30.3663 38.582 33.1713 38.582C34.5738 38.582 35.8347 39.0778 36.7555 39.8712C37.6622 40.6645 38.2288 41.7695 38.2288 42.9878Z" stroke="#292D32" stroke-width="1.5" stroke-linecap="round" stroke-linejoin="round"/>
</g>
<path d="M54.1666 38.5426V41.461C54.1666 42.2402 53.5433 42.8776 52.75 42.906H49.9733C48.4433 42.906 47.0408 41.7868 46.9133 40.2568C46.8283 39.3643 47.1683 38.5285 47.7633 37.9476C48.2874 37.4093 49.01 37.0977 49.8033 37.0977H52.75C53.5433 37.126 54.1666 37.7634 54.1666 38.5426Z" stroke="#292D32" stroke-width="1.5" stroke-linecap="round" stroke-linejoin="round"/>
<path d="M25.834 37.8737V35.0404C25.834 31.187 28.1573 28.4954 31.7698 28.042C32.1382 27.9854 32.5207 27.957 32.9173 27.957H45.6673C46.0357 27.957 46.3898 27.9712 46.7298 28.0278C50.3848 28.4528 52.7507 31.1587 52.7507 35.0404V37.0945H49.804C49.0106 37.0945 48.2881 37.4062 47.764 37.9445C47.169 38.5253 46.829 39.3612 46.914 40.2537C47.0415 41.7837 48.444 42.9028 49.974 42.9028H52.7507V44.957C52.7507 49.207 49.9173 52.0404 45.6673 52.0404H42.1257" stroke="#292D32" stroke-width="1.5" stroke-linecap="round" stroke-linejoin="round"/>
</g>
<defs>
<clipPath id="clip0_792_50621">
<rect width="80" height="80" fill="white"/>
</clipPath>
</defs>
</svg>
