<svg width="30" height="30" viewBox="0 0 30 30" fill="none" xmlns="http://www.w3.org/2000/svg">
<path d="M20.9359 0.833344H9.06421C3.90754 0.833344 0.833374 3.90751 0.833374 9.06418V20.9217C0.833374 26.0925 3.90754 29.1667 9.06421 29.1667H20.9217C26.0784 29.1667 29.1525 26.0925 29.1525 20.9358V9.06418C29.1667 3.90751 26.0925 0.833344 20.9359 0.833344ZM22.4517 12.11L19.1792 16.3317C18.7684 16.8558 18.1875 17.1958 17.5217 17.2667C16.8559 17.3517 16.2042 17.1675 15.68 16.7567L13.0875 14.7167C12.9884 14.6317 12.875 14.6317 12.8184 14.6458C12.7617 14.6458 12.6625 14.6742 12.5775 14.7875L9.20587 19.165C8.99337 19.4342 8.68171 19.5758 8.37004 19.5758C8.14337 19.5758 7.91671 19.505 7.71837 19.3492C7.25087 18.995 7.16587 18.3292 7.52004 17.8617L10.8917 13.4842C11.3025 12.96 11.8834 12.62 12.5492 12.535C13.2009 12.45 13.8667 12.6342 14.3909 13.045L16.9834 15.085C17.0825 15.17 17.1817 15.17 17.2525 15.1558C17.3092 15.1558 17.4084 15.1275 17.4934 15.0142L20.7659 10.7925C21.12 10.325 21.8 10.24 22.2534 10.6083C22.7209 10.9908 22.8059 11.6567 22.4517 12.11Z" fill="#171D1C"/>
</svg>
