<svg width="32" height="32" viewBox="0 0 32 32" fill="none" xmlns="http://www.w3.org/2000/svg">
<path d="M14.2286 2.47062C15.2061 1.63479 16.8069 1.63479 17.7986 2.47062L20.0369 4.39729C20.4619 4.76562 21.2553 5.06312 21.8219 5.06312H24.2303C25.7319 5.06312 26.9644 6.29562 26.9644 7.79729V10.2056C26.9644 10.7581 27.2619 11.5656 27.6303 11.9906L29.5569 14.229C30.3928 15.2065 30.3928 16.8073 29.5569 17.799L27.6303 20.0373C27.2619 20.4623 26.9644 21.2556 26.9644 21.8223V24.2306C26.9644 25.7323 25.7319 26.9648 24.2303 26.9648H21.8219C21.2694 26.9648 20.4619 27.2623 20.0369 27.6306L17.7986 29.5573C16.8211 30.3931 15.2203 30.3931 14.2286 29.5573L11.9903 27.6306C11.5653 27.2623 10.7719 26.9648 10.2053 26.9648H7.75443C6.25276 26.9648 5.02026 25.7323 5.02026 24.2306V21.8081C5.02026 21.2556 4.72276 20.4623 4.36859 20.0373L2.45609 17.7848C1.63443 16.8073 1.63443 15.2206 2.45609 14.2431L4.36859 11.9906C4.72276 11.5656 5.02026 10.7723 5.02026 10.2198V7.78312C5.02026 6.28146 6.25276 5.04896 7.75443 5.04896H10.2053C10.7578 5.04896 11.5653 4.75146 11.9903 4.38312L14.2286 2.47062Z" fill="#171D1C" stroke="#171D1C" stroke-width="2" stroke-linecap="round" stroke-linejoin="round"/>
</svg>
