<svg width="34" height="34" viewBox="0 0 34 34" fill="none" xmlns="http://www.w3.org/2000/svg">
<path d="M13.8126 34C13.4768 34.0017 13.1485 33.9009 12.8716 33.711C12.5946 33.5212 12.3822 33.2513 12.2627 32.9375L9.61707 26.0578C9.56349 25.9192 9.48152 25.7933 9.37643 25.6882C9.27133 25.5831 9.14543 25.5011 9.0068 25.4475L2.12512 22.7999C1.81164 22.6796 1.54202 22.4671 1.35183 22.1904C1.16164 21.9136 1.05982 21.5858 1.05982 21.25C1.05982 20.9142 1.16164 20.5864 1.35183 20.3096C1.54202 20.0329 1.81164 19.8204 2.12512 19.7001L9.00481 17.0545C9.14344 17.0009 9.26934 16.9189 9.37443 16.8138C9.47953 16.7087 9.5615 16.5828 9.61508 16.4442L12.2627 9.5625C12.383 9.24903 12.5955 8.9794 12.8723 8.78921C13.149 8.59902 13.4768 8.49721 13.8126 8.49721C14.1484 8.49721 14.4763 8.59902 14.753 8.78921C15.0297 8.9794 15.2422 9.24903 15.3625 9.5625L18.0082 16.4422C18.0617 16.5808 18.1437 16.7067 18.2488 16.8118C18.3539 16.9169 18.4798 16.9989 18.6184 17.0525L25.4583 19.6841C25.7845 19.8051 26.0656 20.0236 26.2632 20.3099C26.4608 20.5963 26.5653 20.9366 26.5626 21.2845C26.5576 21.6145 26.4536 21.9353 26.2641 22.2054C26.0747 22.4756 25.8086 22.6827 25.5001 22.7999L18.6204 25.4455C18.4818 25.4991 18.3559 25.5811 18.2508 25.6862C18.1457 25.7913 18.0637 25.9172 18.0102 26.0558L15.3625 32.9375C15.243 33.2513 15.0306 33.5212 14.7537 33.711C14.4767 33.9009 14.1484 34.0017 13.8126 34ZM5.84387 11.6875C5.64701 11.6875 5.45477 11.6278 5.29249 11.5164C5.1302 11.405 5.00549 11.247 4.93477 11.0633L3.81516 8.15203C3.79089 8.08836 3.75344 8.03054 3.70526 7.98236C3.65708 7.93418 3.59926 7.89673 3.53559 7.87246L0.624338 6.75285C0.440644 6.68211 0.282689 6.55739 0.171282 6.3951C0.0598755 6.23282 0.000244141 6.04059 0.000244141 5.84375C0.000244141 5.64691 0.0598755 5.45468 0.171282 5.2924C0.282689 5.13011 0.440644 5.00539 0.624338 4.93465L3.53559 3.81504C3.59919 3.79066 3.65696 3.75317 3.70513 3.70501C3.75329 3.65684 3.79078 3.59908 3.81516 3.53547L4.92481 0.650117C4.98739 0.480251 5.09507 0.33065 5.23629 0.217393C5.37751 0.104136 5.54693 0.031504 5.72633 0.00730414C5.94172 -0.0188797 6.15968 0.0275905 6.34566 0.139346C6.53164 0.251101 6.67498 0.421745 6.75297 0.624218L7.87258 3.53547C7.89696 3.59908 7.93445 3.65684 7.98261 3.70501C8.03078 3.75317 8.08854 3.79066 8.15215 3.81504L11.0634 4.93465C11.2471 5.00539 11.405 5.13011 11.5165 5.2924C11.6279 5.45468 11.6875 5.64691 11.6875 5.84375C11.6875 6.04059 11.6279 6.23282 11.5165 6.3951C11.405 6.55739 11.2471 6.68211 11.0634 6.75285L8.15215 7.87246C8.08848 7.89673 8.03066 7.93418 7.98248 7.98236C7.9343 8.03054 7.89685 8.08836 7.87258 8.15203L6.75297 11.0633C6.68225 11.247 6.55753 11.405 6.39525 11.5164C6.23296 11.6278 6.04073 11.6875 5.84387 11.6875ZM26.5626 17C26.3479 16.9999 26.1382 16.9348 25.9612 16.8132C25.7842 16.6915 25.6482 16.5191 25.5712 16.3187L24.0545 12.3761C24.0278 12.3067 23.9868 12.2436 23.9342 12.1909C23.8815 12.1383 23.8185 12.0973 23.749 12.0707L19.8064 10.5539C19.6061 10.4768 19.4339 10.3407 19.3125 10.1638C19.191 9.98677 19.126 9.77715 19.126 9.5625C19.126 9.34785 19.191 9.13823 19.3125 8.96125C19.4339 8.78427 19.6061 8.64824 19.8064 8.57106L23.749 7.05434C23.8185 7.02766 23.8815 6.98668 23.9342 6.93405C23.9868 6.88143 24.0278 6.81834 24.0545 6.74887L25.5599 2.83422C25.6286 2.6491 25.7462 2.48607 25.9002 2.36247C26.0542 2.23888 26.2388 2.15933 26.4345 2.1323C26.6695 2.10385 26.9073 2.15472 27.1101 2.27683C27.313 2.39894 27.4692 2.5853 27.5541 2.80633L29.0708 6.74887C29.0975 6.81834 29.1384 6.88143 29.1911 6.93405C29.2437 6.98668 29.3068 7.02766 29.3763 7.05434L33.3188 8.57106C33.5191 8.64824 33.6913 8.78427 33.8128 8.96125C33.9342 9.13823 33.9993 9.34785 33.9993 9.5625C33.9993 9.77715 33.9342 9.98677 33.8128 10.1638C33.6913 10.3407 33.5191 10.4768 33.3188 10.5539L29.3763 12.0707C29.3068 12.0973 29.2437 12.1383 29.1911 12.1909C29.1384 12.2436 29.0975 12.3067 29.0708 12.3761L27.5541 16.3187C27.477 16.5191 27.341 16.6915 27.1641 16.8132C26.9871 16.9348 26.7774 16.9999 26.5626 17Z" fill="#171D1C"/>
</svg>
