<svg width="35" height="34" viewBox="0 0 35 34" fill="none" xmlns="http://www.w3.org/2000/svg">
<g opacity="0.4">
<path d="M15.429 23.8828V26.7587C15.429 29.1954 13.1623 31.1645 10.3715 31.1645C7.58066 31.1645 5.2998 29.1954 5.2998 26.7587V23.8828C5.2998 26.3195 7.5665 28.0478 10.3715 28.0478C13.1623 28.0478 15.429 26.3053 15.429 23.8828Z" stroke="#292D32" stroke-width="1.5" stroke-linecap="round" stroke-linejoin="round"/>
<path d="M15.4294 19.9893C15.4294 20.6976 15.2311 21.3493 14.8911 21.9159C14.0553 23.2901 12.3411 24.1543 10.3577 24.1543C8.3744 24.1543 6.66022 23.2759 5.82439 21.9159C5.48439 21.3493 5.28613 20.6976 5.28613 19.9893C5.28613 18.771 5.85277 17.6801 6.75943 16.8868C7.68027 16.0793 8.94106 15.5977 10.3436 15.5977C11.7461 15.5977 13.0069 16.0935 13.9278 16.8868C14.8628 17.666 15.4294 18.771 15.4294 19.9893Z" stroke="#292D32" stroke-width="1.5" stroke-linecap="round" stroke-linejoin="round"/>
<path d="M15.429 19.9878V23.8837C15.429 26.3203 13.1623 28.0487 10.3715 28.0487C7.58066 28.0487 5.2998 26.3062 5.2998 23.8837V19.9878C5.2998 17.5512 7.5665 15.582 10.3715 15.582C11.774 15.582 13.0349 16.0778 13.9557 16.8712C14.8624 17.6645 15.429 18.7695 15.429 19.9878Z" stroke="#292D32" stroke-width="1.5" stroke-linecap="round" stroke-linejoin="round"/>
</g>
<path d="M31.3668 15.5426V18.461C31.3668 19.2402 30.7435 19.8776 29.9502 19.906H27.1735C25.6435 19.906 24.241 18.7868 24.1135 17.2568C24.0285 16.3643 24.3685 15.5285 24.9635 14.9476C25.4876 14.4093 26.2101 14.0977 27.0035 14.0977H29.9502C30.7435 14.126 31.3668 14.7634 31.3668 15.5426Z" stroke="#292D32" stroke-width="1.5" stroke-linecap="round" stroke-linejoin="round"/>
<path d="M3.03418 14.8737V12.0404C3.03418 8.18703 5.35752 5.49536 8.97002 5.04203C9.33835 4.98536 9.72085 4.95703 10.1175 4.95703H22.8675C23.2358 4.95703 23.59 4.97118 23.93 5.02785C27.585 5.45285 29.9508 8.1587 29.9508 12.0404V14.0945H27.0042C26.2108 14.0945 25.4883 14.4062 24.9642 14.9445C24.3692 15.5253 24.0292 16.3612 24.1142 17.2537C24.2417 18.7837 25.6441 19.9028 27.1741 19.9028H29.9508V21.957C29.9508 26.207 27.1175 29.0404 22.8675 29.0404H19.3258" stroke="#292D32" stroke-width="1.5" stroke-linecap="round" stroke-linejoin="round"/>
</svg>
