<svg width="20" height="20" viewBox="0 0 20 20" fill="none" xmlns="http://www.w3.org/2000/svg">
<path d="M18.6136 1.84325C18.7097 1.73338 18.7832 1.60567 18.8299 1.46739C18.8766 1.32912 18.8957 1.183 18.8859 1.03737C18.8762 0.891747 18.8378 0.749467 18.7731 0.618656C18.7083 0.487846 18.6185 0.371067 18.5086 0.274987C18.3987 0.178908 18.271 0.105409 18.1327 0.058688C17.9945 0.0119667 17.8484 -0.00706232 17.7027 0.00268739C17.5571 0.0124371 17.4148 0.0507748 17.284 0.115511C17.1532 0.180248 17.0364 0.270115 16.9403 0.379983L11.2628 6.86858L6.44415 0.444424C6.34066 0.306435 6.20646 0.194436 6.05219 0.117298C5.89791 0.0401593 5.72779 0 5.5553 0H1.11106C0.904724 0 0.702463 0.0574581 0.526942 0.165936C0.351421 0.274414 0.209575 0.429626 0.117298 0.614179C0.0250214 0.798733 -0.0140403 1.00534 0.00448998 1.21084C0.0230202 1.41634 0.0984103 1.61263 0.222213 1.7777L7.37411 11.3128L1.38549 18.157C1.28941 18.2668 1.21591 18.3945 1.16919 18.5328C1.12247 18.6711 1.10344 18.8172 1.11319 18.9628C1.12294 19.1085 1.16128 19.2507 1.22602 19.3815C1.29075 19.5124 1.38062 19.6291 1.49049 19.7252C1.60036 19.8213 1.72807 19.8948 1.86634 19.9415C2.00462 19.9882 2.15074 20.0073 2.29636 19.9975C2.44199 19.9878 2.58427 19.9494 2.71508 19.8847C2.84589 19.82 2.96267 19.7301 3.05875 19.6202L8.73627 13.1305L13.5549 19.5547C13.6584 19.6927 13.7926 19.8047 13.9469 19.8818C14.1012 19.9589 14.2713 19.9991 14.4438 19.9991H18.888C19.0944 19.9991 19.2966 19.9416 19.4722 19.8332C19.6477 19.7247 19.7895 19.5695 19.8818 19.3849C19.9741 19.2004 20.0131 18.9938 19.9946 18.7883C19.9761 18.5828 19.9007 18.3865 19.7769 18.2214L12.625 8.68627L18.6136 1.84325Z" fill="#171D1C"/>
</svg>
